<svg width="500" height="500" viewBox="0 0 500 500" fill="none" xmlns="http://www.w3.org/2000/svg">
<path d="M50 113.333C50 100.941 50 94.7448 51.0926 89.6044C55.1984 70.2884 70.2884 55.1984 89.6044 51.0926C94.7448 50 100.941 50 113.333 50H370C398.003 50 412.004 50 422.7 55.4497C432.108 60.2433 439.757 67.8924 444.55 77.3005C450 87.9961 450 101.997 450 130V152.667C450 161.067 450 165.268 448.365 168.477C446.927 171.299 444.632 173.594 441.81 175.032C438.601 176.667 434.401 176.667 426 176.667H113.333C100.941 176.667 94.7448 176.667 89.6044 175.574C70.2884 171.468 55.1984 156.378 51.0926 137.062C50 131.922 50 125.726 50 113.333V113.333Z" fill="#00AEB3"/>
<path d="M50 250C50 237.608 50 231.412 51.0926 226.271C55.1984 206.955 70.2884 191.865 89.6044 187.759C94.7448 186.667 100.941 186.667 113.333 186.667H370C398.003 186.667 412.004 186.667 422.7 192.116C432.108 196.91 439.757 204.559 444.55 213.967C450 224.663 450 238.664 450 266.667V289.333C450 297.734 450 301.935 448.365 305.143C446.927 307.966 444.632 310.26 441.81 311.699C438.601 313.333 434.401 313.333 426 313.333H113.333C100.941 313.333 94.7448 313.333 89.6044 312.241C70.2884 308.135 55.1984 293.045 51.0926 273.729C50 268.589 50 262.392 50 250V250Z" fill="#80D7D9"/>
<path d="M50 386.667C50 374.274 50 368.078 51.0926 362.938C55.1984 343.622 70.2884 328.532 89.6044 324.426C94.7448 323.333 100.941 323.333 113.333 323.333H370C398.003 323.333 412.004 323.333 422.7 328.783C432.108 333.577 439.757 341.226 444.55 350.634C450 361.329 450 375.331 450 403.333V426C450 434.401 450 438.601 448.365 441.81C446.927 444.632 444.632 446.927 441.81 448.365C438.601 450 434.401 450 426 450H113.333C100.941 450 94.7448 450 89.6044 448.907C70.2884 444.802 55.1984 429.712 51.0926 410.396C50 405.255 50 399.059 50 386.667V386.667Z" fill="#CCEFF0"/>
</svg>
