<svg width="500" height="500" viewBox="0 0 500 500" fill="none" xmlns="http://www.w3.org/2000/svg">
<path d="M100 113.333C100 100.941 100 94.7448 101.093 89.6044C105.198 70.2884 120.288 55.1984 139.604 51.0926C144.745 50 150.941 50 163.333 50H320C348.003 50 362.004 50 372.7 55.4497C382.108 60.2433 389.757 67.8924 394.55 77.3005C400 87.9961 400 101.997 400 130V152.667C400 161.067 400 165.268 398.365 168.477C396.927 171.299 394.632 173.594 391.81 175.032C388.601 176.667 384.401 176.667 376 176.667H163.333C150.941 176.667 144.745 176.667 139.604 175.574C120.288 171.468 105.198 156.378 101.093 137.062C100 131.922 100 125.726 100 113.333V113.333Z" fill="#00AEB3"/>
<path d="M100 250C100 237.608 100 231.412 101.093 226.271C105.198 206.955 120.288 191.865 139.604 187.759C144.745 186.667 150.941 186.667 163.333 186.667H320C348.003 186.667 362.004 186.667 372.7 192.116C382.108 196.91 389.757 204.559 394.55 213.967C400 224.663 400 238.664 400 266.667V289.333C400 297.734 400 301.935 398.365 305.143C396.927 307.966 394.632 310.26 391.81 311.699C388.601 313.333 384.401 313.333 376 313.333H163.333C150.941 313.333 144.745 313.333 139.604 312.241C120.288 308.135 105.198 293.045 101.093 273.729C100 268.589 100 262.392 100 250V250Z" fill="#80D7D9"/>
<path d="M100 386.667C100 374.274 100 368.078 101.093 362.938C105.198 343.622 120.288 328.532 139.604 324.426C144.745 323.333 150.941 323.333 163.333 323.333H320C348.003 323.333 362.004 323.333 372.7 328.783C382.108 333.577 389.757 341.226 394.55 350.634C400 361.329 400 375.331 400 403.333V426C400 434.401 400 438.601 398.365 441.81C396.927 444.632 394.632 446.927 391.81 448.365C388.601 450 384.401 450 376 450H163.333C150.941 450 144.745 450 139.604 448.907C120.288 444.802 105.198 429.712 101.093 410.396C100 405.255 100 399.059 100 386.667V386.667Z" fill="#CCEFF0"/>
</svg>
